<?xml version="1.0" encoding="UTF-8" standalone="no"?>
<!-- Generator: Adobe Illustrator 15.0.0, SVG Export Plug-In . SVG Version: 6.00 Build 0)  -->

<svg
   version="1.1"
   id="svg2"
   sodipodi:docname="MoaT.svg"
   inkscape:version="1.4 (e7c3feb100, 2024-10-09)"
   x="0px"
   y="0px"
   width="367"
   height="367"
   viewBox="1 -47 367 367"
   enable-background="new 0 0 371.049 319.942"
   xml:space="preserve"
   inkscape:export-filename="/home/smurf/src/moat/doc/MoaT.500.png"
   inkscape:export-xdpi="126.12"
   inkscape:export-ydpi="126.12"
   xmlns:inkscape="http://www.inkscape.org/namespaces/inkscape"
   xmlns:sodipodi="http://sodipodi.sourceforge.net/DTD/sodipodi-0.dtd"
   xmlns:xlink="http://www.w3.org/1999/xlink"
   xmlns="http://www.w3.org/2000/svg"
   xmlns:svg="http://www.w3.org/2000/svg"
   xmlns:rdf="http://www.w3.org/1999/02/22-rdf-syntax-ns#"
   xmlns:cc="http://creativecommons.org/ns#"
   xmlns:dc="http://purl.org/dc/elements/1.1/"><metadata
     id="metadata55"><rdf:RDF><cc:Work
         rdf:about=""><dc:format>image/svg+xml</dc:format><dc:type
           rdf:resource="http://purl.org/dc/dcmitype/StillImage" /></cc:Work></rdf:RDF></metadata><defs
     id="defs53"><linearGradient
       id="linearGradient6044"
       inkscape:swatch="solid"><stop
         style="stop-color:#000000;stop-opacity:1;"
         offset="0"
         id="stop6042" /></linearGradient></defs><sodipodi:namedview
     pagecolor="#ffffff"
     bordercolor="#666666"
     id="base"
     borderopacity="1.0"
     inkscape:pageopacity="0.0"
     inkscape:zoom="1.226764"
     inkscape:pageshadow="2"
     inkscape:cx="213.57001"
     inkscape:cy="113.7138"
     inkscape:document-units="px"
     inkscape:current-layer="layer1"
     showgrid="false"
     inkscape:window-width="1920"
     inkscape:window-height="1200"
     inkscape:window-x="0"
     inkscape:window-y="0"
     inkscape:window-maximized="0"
     fit-margin-top="50"
     fit-margin-left="50"
     fit-margin-right="50"
     fit-margin-bottom="50"
     inkscape:snap-others="false"
     inkscape:snap-to-guides="true"
     inkscape:snap-grids="false"
     inkscape:snap-nodes="false"
     inkscape:showpageshadow="0"
     inkscape:pagecheckerboard="1"
     inkscape:deskcolor="#505050" /><g
     id="layer1"
     transform="translate(-179.33551,-173.42591)"
     inkscape:groupmode="layer"
     inkscape:label="Layer 1"
     style="display:inline"><g
       id="g2995"
       transform="translate(14,-10)"><g
   id="g3012"
   transform="matrix(0.72550593,-0.30446378,0.30446378,0.72550593,-213.10108,184.10616)"
   inkscape:label="openHardware"><g
     id="g3014"><g
       id="g8"
       style="opacity:1"><g
         id="g3016"
         transform="translate(1.8893265,-0.3778653)"><g
           id="g3022"
           transform="translate(602.2539,351.748)" /><g
           id="g3026"
           transform="translate(575.0156,351.7285)"><g
             id="g6052"><path
               style="fill:#7f97ce;fill-opacity:1;stroke:#828282;stroke-width:2.97883;stroke-linecap:round;stroke-linejoin:miter;stroke-miterlimit:3.2;stroke-dasharray:none;stroke-opacity:1;paint-order:fill markers stroke"
               d="m -89.94961,-72.783791 c 8.091974,-3.33666 7.039754,-2.507381 14.011336,-4.07267 1.510605,-8.117152 3.01978,-16.234571 4.53125,-24.351559 h 19.822265 c 1.643004,8.073551 2.81031,16.605284 4.742188,24.398434 5.618091,1.190108 6.464703,1.055725 12.662883,3.875992 -7.574515,18.125161 -7.920901,19.168289 -14.521484,35.091797 -9.923205,-5.358724 -19.070687,-4.055448 -26.658045,-0.0181 -7.696773,-18.107863 -6.184598,-14.892754 -14.590393,-34.923896 z"
               id="path6048"
               inkscape:connector-curvature="0"
               sodipodi:nodetypes="ccccccccc" /><path
               sodipodi:nodetypes="ccccccccccccccccccccccccccccccccccccc"
               inkscape:connector-curvature="0"
               id="path3028"
               d="m -117.89258,-80.099609 c -4.2805,4.281348 -8.56245,8.56125 -12.84375,12.841797 4.21193,6.4386 9.24787,12.864679 12.95117,19.314453 -4.01387,6.488864 -6.88266,13.686768 -8.40625,21.164062 -7.69659,1.433049 -15.39335,2.86521 -23.08984,4.298828 V -2.65625 c 7.80035,1.6305196 16.178,2.65551627713 23.62695,4.6523438 1.73381,7.1183074 4.67661,13.9404762 8.67188,20.0820312 -4.58442,6.679389 -9.16532,13.361196 -13.75196,20.039063 4.67323,4.672478 9.34527,9.346136 14.01758,14.019531 6.82911,-4.551096 13.64937,-9.645732 20.484378,-13.855469 6.088041,3.737447 12.788184,6.481586 19.759766,8.046875 1.510605,8.117152 3.01978,16.234571 4.53125,24.351563 h 19.822265 c 1.643004,-8.073555 2.81031,-16.605288 4.742188,-24.398438 6.954047,-1.590895 13.638541,-4.344173 19.703125,-8.099609 6.776453,4.652041 13.554945,9.301115 20.330078,13.955078 C -2.6714718,51.463294 2.0006306,46.789693 6.6738281,42.117188 2.1982901,35.384664 -2.861351,28.652981 -6.9707031,21.916016 -2.9862822,15.735632 -0.04713973,8.8809384 1.65625,1.7265625 9.5110246,0.26539344 17.366134,-1.1939786 25.220703,-2.65625 V -22.480469 C 17.583797,-24.08854 9.3278413,-25.068971 2.0742188,-27.064453 0.51039361,-34.527499 -2.378746,-41.710845 -6.421875,-48.175781 -2.055583,-54.536179 2.3074761,-60.898798 6.6757812,-67.257812 2.0023559,-71.93009 -2.6712442,-76.602193 -7.34375,-81.275391 c -6.26652,4.304572 -12.536729,8.603773 -18.804688,12.90625 -2.566764,-1.708038 -5.289458,-3.160935 -8.03125,-4.564453 -4.839097,11.697844 -9.682636,23.39385 -14.521484,35.091797 15.572767,8.077063 19.866789,28.9846335 9.394531,42.1425782 -8.988036,13.1072658 -29.787192,15.8093298 -41.783203,4.0234376 -12.758147,-11.1245896 -14.014424,-34.4461918 5.730627,-46.1841138 -3.8613,-9.331126 -10.730049,-25.592374 -14.590393,-34.923896 -4.021734,1.813833 -4.882847,2.633402 -8.686352,4.685661 -5.168628,-3.54864 -12.913538,-9.626675 -18.080838,-13.177261 l -0.7071,0.707107 z"
               style="fill:#405fa8;stroke:#000000;stroke-width:2.97883;stroke-linecap:round;stroke-linejoin:miter;stroke-miterlimit:3.2;stroke-dasharray:none;stroke-opacity:0.970297;paint-order:fill markers stroke" /></g></g></g></g></g></g><g
   inkscape:label="openHardware"
   transform="matrix(-0.93090684,-0.39492661,-0.39492661,0.93090684,1057.7186,265.91802)"
   id="g4546"
   inkscape:transform-center-x="-0.76420569"
   inkscape:transform-center-y="38.97449"><g
     id="g4544"><g
       id="g4542"><g
         id="g4540"><g
           transform="translate(602.2539,351.748)"
           id="g4534" /><g
           transform="translate(575.0156,351.7285)"
           id="g4538" /></g></g></g></g><g
   inkscape:label="openHardware"
   transform="matrix(-0.78679736,0.00263707,-0.00263707,-0.78679736,758.41503,626.21674)"
   id="use6056"><g
     id="g6072"><g
       style="opacity:1"
       id="g6070"><g
         transform="translate(1.8893265,-0.3778653)"
         id="g6068"><g
           transform="translate(602.2539,351.748)"
           id="g6058" /><g
           transform="translate(575.0156,351.7285)"
           id="g6066"><g
             id="g6064"><path
               sodipodi:nodetypes="ccccccccc"
               inkscape:connector-curvature="0"
               id="path6060"
               d="m -89.94961,-72.783791 c 8.091974,-3.33666 7.039754,-2.507381 14.011336,-4.07267 1.510605,-8.117152 3.01978,-16.234571 4.53125,-24.351559 h 19.822265 c 1.643004,8.073551 2.81031,16.605284 4.742188,24.398434 5.618091,1.190108 6.464703,1.055725 12.662883,3.875992 -7.574515,18.125161 -7.920901,19.168289 -14.521484,35.091797 -9.923205,-5.358724 -19.070687,-4.055448 -26.658045,-0.0181 -7.696773,-18.107863 -6.184598,-14.892754 -14.590393,-34.923896 z"
               style="fill:#7f97ce;fill-opacity:1;stroke:#828282;stroke-width:2.97883;stroke-linecap:round;stroke-linejoin:miter;stroke-miterlimit:3.2;stroke-dasharray:none;stroke-opacity:1;paint-order:fill markers stroke" /><path
               style="fill:#405fa8;stroke:#000000;stroke-width:2.97883;stroke-linecap:round;stroke-linejoin:miter;stroke-miterlimit:3.2;stroke-dasharray:none;stroke-opacity:0.970297;paint-order:fill markers stroke"
               d="m -117.89258,-80.099609 c -4.2805,4.281348 -8.56245,8.56125 -12.84375,12.841797 4.21193,6.4386 9.24787,12.864679 12.95117,19.314453 -4.01387,6.488864 -6.88266,13.686768 -8.40625,21.164062 -7.69659,1.433049 -15.39335,2.86521 -23.08984,4.298828 V -2.65625 c 7.80035,1.6305196 16.178,2.65551627713 23.62695,4.6523438 1.73381,7.1183074 4.67661,13.9404762 8.67188,20.0820312 -4.58442,6.679389 -9.16532,13.361196 -13.75196,20.039063 4.67323,4.672478 9.34527,9.346136 14.01758,14.019531 6.82911,-4.551096 13.64937,-9.645732 20.484378,-13.855469 6.088041,3.737447 12.788184,6.481586 19.759766,8.046875 1.510605,8.117152 3.01978,16.234571 4.53125,24.351563 h 19.822265 c 1.643004,-8.073555 2.81031,-16.605288 4.742188,-24.398438 6.954047,-1.590895 13.638541,-4.344173 19.703125,-8.099609 6.776453,4.652041 13.554945,9.301115 20.330078,13.955078 C -2.6714718,51.463294 2.0006306,46.789693 6.6738281,42.117188 2.1982901,35.384664 -2.861351,28.652981 -6.9707031,21.916016 -2.9862822,15.735632 -0.04713973,8.8809384 1.65625,1.7265625 9.5110246,0.26539344 17.366134,-1.1939786 25.220703,-2.65625 V -22.480469 C 17.583797,-24.08854 9.3278413,-25.068971 2.0742188,-27.064453 0.51039361,-34.527499 -2.378746,-41.710845 -6.421875,-48.175781 -2.055583,-54.536179 2.3074761,-60.898798 6.6757812,-67.257812 2.0023559,-71.93009 -2.6712442,-76.602193 -7.34375,-81.275391 c -6.26652,4.304572 -12.536729,8.603773 -18.804688,12.90625 -2.566764,-1.708038 -5.289458,-3.160935 -8.03125,-4.564453 -4.839097,11.697844 -9.682636,23.39385 -14.521484,35.091797 15.572767,8.077063 19.866789,28.9846335 9.394531,42.1425782 -8.988036,13.1072658 -29.787192,15.8093298 -41.783203,4.0234376 -12.758147,-11.1245896 -14.014424,-34.4461918 5.730627,-46.1841138 -3.8613,-9.331126 -10.730049,-25.592374 -14.590393,-34.923896 -4.021734,1.813833 -4.882847,2.633402 -8.686352,4.685661 -5.168628,-3.54864 -12.913538,-9.626675 -18.080838,-13.177261 l -0.7071,0.707107 z"
               id="path6062"
               inkscape:connector-curvature="0"
               sodipodi:nodetypes="ccccccccccccccccccccccccccccccccccccc" /></g></g></g></g></g></g><use
   x="0"
   y="0"
   xlink:href="#g3012"
   id="use6076"
   transform="rotate(89.264043,352.0498,361.85202)"
   width="100%"
   height="100%" /><g
   aria-label="MoaT"
   style="font-style:normal;font-weight:normal;font-size:250px;line-height:125%;font-family:Sans;letter-spacing:0px;word-spacing:0px;fill:#000000;fill-opacity:1;stroke:none;stroke-width:0.9375px;stroke-linecap:butt;stroke-linejoin:miter;stroke-opacity:1"
   id="text6080"><path
     d="m 271.375,500.86279 h -21.25 v -90.1 l -19.375,90.1 H 209.5 l -19.375,-90.1 v 90.1 h -21.25 v -126.225 h 31.875 l 19.375,82.875 19.125,-82.875 h 32.125 z"
     style="font-style:normal;font-variant:normal;font-weight:normal;font-stretch:normal;font-size:212.5px;font-family:'Fragile Bombers';-inkscape-font-specification:'Fragile Bombers';stroke-width:0.9375px"
     id="path6082"
     inkscape:connector-curvature="0"
     sodipodi:nodetypes="cccccccccccccc" /><path
     d="m 347.54629,483.01279 -21.25,18.0625 h -21.25 l -21.25,-18.0625 v -36.125 l 21.25,-18.0625 h 21.25 l 21.25,18.0625 z m -21.25,0 v -36.125 h -21.25 v 36.125 z"
     style="font-style:normal;font-variant:normal;font-weight:normal;font-stretch:normal;font-size:212.5px;font-family:'Fragile Bombers';-inkscape-font-specification:'Fragile Bombers';stroke-width:0.9375px"
     id="path6084" /><path
     d="m 423.7209,501.50029 h -42.5 l -21.25,-18.0625 v -36.125 l 21.25,-18.0625 h 42.5 z m -21.25,-18.0625 v -36.125 h -21.25 v 36.125 z"
     style="font-style:normal;font-variant:normal;font-weight:normal;font-stretch:normal;font-size:212.5px;font-family:'Fragile Bombers';-inkscape-font-specification:'Fragile Bombers';stroke-width:0.9375px"
     id="path6086" /><path
     d="m 487.47066,400.20029 h -21.25 v 100.6625 h -23.125 v -100.6625 h -26.875 l 15,-25.5625 h 71.25 z"
     style="font-style:normal;font-variant:normal;font-weight:normal;font-stretch:normal;font-size:212.5px;font-family:'Fragile Bombers';-inkscape-font-specification:'Fragile Bombers';stroke-width:0.9375px"
     id="path6088"
     inkscape:connector-curvature="0"
     sodipodi:nodetypes="ccccccccc" /></g><text
   xml:space="preserve"
   style="font-style:normal;font-weight:normal;font-size:37.5px;line-height:60%;font-family:Sans;text-align:end;letter-spacing:0px;word-spacing:0px;writing-mode:tb-rl;text-anchor:end;fill:#000000;fill-opacity:1;stroke:none;stroke-width:0.9375px;stroke-linecap:butt;stroke-linejoin:miter;stroke-opacity:1"
   x="520.30902"
   y="497.38284"
   id="text6093"><tspan
     sodipodi:role="line"
     id="tspan6091"
     x="520.30902"
     y="497.38284"
     style="font-style:normal;font-variant:normal;font-weight:normal;font-stretch:normal;font-size:23.125px;line-height:60%;font-family:Cantarell;-inkscape-font-specification:'Cantarell, @wght=700';font-variant-ligatures:normal;font-variant-caps:normal;font-variant-numeric:normal;font-variant-east-asian:normal;font-variation-settings:'wght' 700;text-align:end;writing-mode:tb-rl;text-anchor:end;stroke-width:0.9375px"
     dy="0">all you can</tspan><tspan
     sodipodi:role="line"
     x="497.75211"
     y="497.38284"
     style="font-style:normal;font-variant:normal;font-weight:normal;font-stretch:normal;font-size:23.125px;line-height:60%;font-family:Cantarell;-inkscape-font-specification:'Cantarell, @wght=700';font-variant-ligatures:normal;font-variant-caps:normal;font-variant-numeric:normal;font-variant-east-asian:normal;font-variation-settings:'wght' 700;text-align:end;writing-mode:tb-rl;text-anchor:end;stroke-width:0.9375px"
     id="tspan6095">connect</tspan></text>
</g></g></svg>
